<svg width="64" height="64" viewBox="0 0 64 64" fill="none" xmlns="http://www.w3.org/2000/svg">
    <rect width="64" height="64" rx="16" fill="#FF6B6B"/>
    
    <path d="M32 14C27.5817 14 24 17.5817 24 22C24 22.8468 24.1315 23.6657 24.3774 24.4371C21.8488 25.4385 20 27.8598 20 30.75C20 34.3399 22.8599 37.25 26.4499 37.25H37.5501C41.1401 37.25 44 34.3399 44 30.75C44 27.8598 42.1512 25.4385 39.6226 24.4371C39.8685 23.6657 40 22.8468 40 22C40 17.5817 36.4183 14 32 14Z" fill="white"/>
    <path d="M25 40C25 38.8954 25.8954 38 27 38H37C38.1046 38 39 38.8954 39 40V42C39 43.1046 38.1046 44 37 44H27C25.8954 44 25 43.1046 25 42V40Z" fill="white"/>
</svg>
